<svg version="1.1" xmlns="http://www.w3.org/2000/svg" xmlns:xlink="http://www.w3.org/1999/xlink" width="439.37754" height="285.87089" viewBox="0,0,439.37754,285.87089"><g transform="translate(-24.42471,-45.13938)"><g data-paper-data="{&quot;isPaintingLayer&quot;:true}" fill-rule="nonzero" stroke="none" stroke-width="1" stroke-linecap="butt" stroke-linejoin="miter" stroke-miterlimit="10" stroke-dasharray="" stroke-dashoffset="0" style="mix-blend-mode: normal"><g data-paper-data="{&quot;index&quot;:null}"><path d="M234.23021,175.95441c0,0 -28.89181,80.89289 -63.5616,80.89289c-36.5445,0 -69.33957,-40.44448 -46.22638,-80.89289c10.33711,-18.08864 28.89181,-23.11319 28.89181,-23.11319h80.89289v23.11319z" fill="#ffaa41"/><path d="M234.22628,152.9394v12.36827l-63.23955,36.89012c5.38195,13.11122 15.48014,24.99052 30.07857,35.51877c-2.54435,3.09878 -5.19278,5.9462 -7.92695,8.46436c-19.31729,-14.22859 -31.56839,-30.89221 -36.24143,-49.78991c-4.28815,-17.34307 -1.35891,-32.88278 2.24913,-43.55177h12.36435c-3.32592,8.44211 -7.03411,22.36501 -3.96086,37.98392l63.76583,-37.19646c0.91903,-0.53283 1.91792,-0.68993 2.91157,-0.68731z" fill="#a56946"/><path d="M198.80112,240.35518c-8.52066,9.66682 -18.08471,16.49409 -28.14298,16.49343c-36.54581,0 -69.33957,-40.44448 -46.22638,-80.89289c5.95078,-10.41305 14.60955,-16.48099 20.8994,-19.76894c-8.30857,12.20201 -14.9447,29.05219 -9.34281,48.66076c10.34497,36.20739 47.6226,36.83775 62.81276,35.51092z" fill="#695046"/><path d="M92.96221,45.14069c12.02266,0 29.7827,5.52138 54.58928,21.02508c35.33418,22.08419 86.67283,75.1195 86.67283,75.1195v11.55659h-109.74019c-6.98305,0 -13.27028,-4.16247 -15.97239,-10.60156c-4.41055,-10.50927 -11.5782,-27.0675 -18.74649,-41.40279c-7.85299,-15.70466 -17.5185,-29.56341 -17.33522,-40.45037c0.03404,-2.03116 0.45886,-3.95889 1.36742,-5.77601c2.67723,-5.35577 8.77987,-9.46914 19.1615,-9.46914z" fill="#695046"/><path d="M151.56537,80.79824c2.07894,-1.0506 4.54671,-0.82935 6.3972,0.58716c26.06731,19.95157 57.39219,52.62031 66.95036,62.78985h-94.37068c-3.28861,0 -6.2329,-2.05734 -7.49951,-5.24187c-4.42888,-11.13046 -11.11934,-27.3745 -17.84121,-41.55334c-1.94999,-4.11338 -3.97853,-8.03234 -5.93965,-11.82235c-4.92898,-9.52282 -9.58304,-18.51739 -9.4914,-24.28358c0.01244,-0.79662 0.14793,-1.44073 0.42548,-2.02723c1.91137,-4.03417 7.53748,-4.63573 10.72135,-4.63573c3.25129,0 7.66905,0.61596 13.41167,2.42718c2.99666,0.94587 4.6606,4.07214 4.01715,7.14735c-3.27551,15.65753 -2.09269,33.07458 0.18197,47.30905c0.63494,3.97133 6.18839,4.23775 7.21281,0.34889c4.56962,-17.35486 16.86916,-26.52093 25.82577,-31.04538z" fill="#ffaa41"/><path d="M116.58663,94.03448c-5.28114,-2.15487 -10.72659,-4.3176 -16.33371,-6.49146c-0.33253,-0.64411 -0.66767,-1.34843 -0.99692,-1.98468c-4.92898,-9.52282 -9.58304,-18.51739 -9.4914,-24.28358c0.01244,-0.79662 0.14793,-1.44073 0.42548,-2.02723c1.91137,-4.03417 7.53748,-4.63573 10.72135,-4.63573c3.25129,0 7.66905,0.61465 13.41167,2.42587c2.99601,0.94587 4.6606,4.07214 4.01715,7.14735c-2.02265,9.66682 -2.33816,20.00328 -1.75362,29.84946z" fill="#ff9641"/><path d="M157.95865,81.38081c26.06731,19.95223 57.39219,52.62031 66.95036,62.7905h-4.83799c-16.39066,-9.59286 -46.81616,-26.12164 -89.36969,-44.26002c5.80154,-9.85993 14.23841,-15.77078 20.8634,-19.11764c2.0796,-1.05125 4.54671,-0.82935 6.3972,0.58716z" fill="#ff9641"/><path d="M117.09982,100.4775c-4.24167,-1.74642 -8.52786,-3.49676 -12.98358,-5.25758c-1.61354,-3.30628 -3.25129,-6.56543 -4.85501,-9.66355c-1.0074,-1.94737 -1.99123,-3.86071 -2.93841,-5.74066c6.90908,2.62944 13.58448,5.25562 20.03405,7.8687c0.07004,4.34182 0.33253,8.63914 0.74295,12.79309z" fill="#a56946"/><path d="M224.90442,144.17459l-16.52289,0.00065c-17.42555,-9.7709 -44.64295,-23.88559 -80.29068,-39.07903c1.64234,-3.8234 3.66761,-7.15455 5.92132,-10.05368c37.2737,15.95668 65.32896,30.71547 82.7388,40.5898c3.43392,3.54913 6.24403,6.50979 8.15475,8.54226z" fill="#a56946"/><path d="M135.99425,227.96072M141.77287,227.96072c0,3.19145 -2.58718,5.77862 -5.77862,5.77862c-3.19145,0 -5.77862,-2.58718 -5.77862,-5.77862c0,-3.19145 2.58718,-5.77862 5.77862,-5.77862c3.19145,0 5.77862,2.58718 5.77862,5.77862" fill="#8c6950"/><path d="M134.73091,73.3884M140.50953,73.3884c0,3.19145 -2.58718,5.77862 -5.77862,5.77862c-3.19145,0 -5.77862,-2.58718 -5.77862,-5.77862c0,-3.19145 2.58718,-5.77862 5.77862,-5.77862c3.19145,0 5.77862,2.58718 5.77862,5.77862" fill="#8c6950"/><path d="M149.62913,240.05734M153.51144,240.05734c0,2.14414 -1.73817,3.88231 -3.88231,3.88231c-2.14414,0 -3.88231,-1.73817 -3.88231,-3.88231c0,-2.14414 1.73817,-3.88231 3.88231,-3.88231c2.14414,0 3.88231,1.73817 3.88231,3.88231" fill="#8c6950"/><path d="M127.32107,212.15918M131.20338,212.15918c0,2.14414 -1.73817,3.88231 -3.88231,3.88231c-2.14414,0 -3.88231,-1.73817 -3.88231,-3.88231c0,-2.14414 1.73817,-3.88231 3.88231,-3.88231c2.14414,0 3.88231,1.73817 3.88231,3.88231" fill="#8c6950"/><path d="M126.84323,86.89891M130.72554,86.89891c0,2.14414 -1.73817,3.88231 -3.88231,3.88231c-2.14414,0 -3.88231,-1.73817 -3.88231,-3.88231c0,-2.14414 1.73817,-3.88231 3.88231,-3.88231c2.14414,0 3.88231,1.73817 3.88231,3.88231" fill="#8c6950"/><path d="M245.77372,175.95441v-23.11319h80.89944c0,0 18.5547,5.02455 28.89181,23.11319c23.11319,40.44841 -9.68188,80.89289 -46.22638,80.89289c-34.67044,0 -63.56225,-80.89289 -63.56225,-80.89289z" fill="#ffaa41"/><path d="M245.77372,152.9394c0.99365,-0.00262 1.99254,0.15448 2.91157,0.68731l63.76583,37.19646c3.07325,-15.61891 -0.63494,-29.54181 -3.96086,-37.98392h12.36435c3.60804,10.66899 6.53728,26.20869 2.24913,43.55177c-4.67304,18.8977 -16.92414,35.56132 -36.24143,49.78991c-2.73418,-2.51817 -5.3826,-5.36559 -7.92695,-8.46436c14.59842,-10.52825 24.69662,-22.40755 30.07857,-35.51877l-63.23955,-36.88946v-12.36893z" fill="#a56946"/><path d="M281.19954,240.35845c15.19016,1.32683 52.46779,0.69647 62.81276,-35.51092c5.60189,-19.60857 -1.03424,-36.45875 -9.34281,-48.66076c6.28985,3.28795 14.94862,9.3559 20.8994,19.76894c23.11319,40.44841 -9.68057,80.89289 -46.22638,80.89289c-10.05761,0.00065 -19.62232,-6.82661 -28.14298,-16.49343z" fill="#695046"/><path d="M387.04106,45.14069c10.38228,0 16.48427,4.11338 19.1615,9.46849c0.90856,1.81711 1.33338,3.74485 1.36742,5.77601c0.18328,10.88696 -9.48223,24.74571 -17.33522,40.45037c-7.1683,14.33528 -14.33528,30.89352 -18.74649,41.40279c-2.7021,6.4391 -8.98934,10.60156 -15.97239,10.60156h-109.74019v-11.55659c0,0 51.34061,-53.034 86.67283,-75.1195c24.80659,-15.50305 42.56663,-21.02443 54.58928,-21.02443z" fill="#695046"/><path d="M237.13851,147.46254c-0.05629,-0.40584 -6.03195,-40.5898 -34.01521,-73.65979c-1.03162,-1.21621 -0.88041,-3.03856 0.33907,-4.07148c1.20704,-1.01853 3.04117,-0.87779 4.0741,0.34169c19.2983,22.80619 28.42837,48.30074 32.4632,63.37832c4.03483,-15.07823 13.16424,-40.57278 32.4632,-63.37832c1.03293,-1.21948 2.85527,-1.36022 4.07476,-0.34169c1.21948,1.03293 1.372,2.85527 0.33907,4.07148c-27.9826,33.07392 -33.95891,73.25919 -34.01521,73.65979c-0.20292,1.42436 -1.4224,2.48544 -2.86117,2.48544c-1.43876,0 -2.65759,-1.06107 -2.86182,-2.48544z" fill="#908490"/><path d="M240.00033,222.18013c-3.19369,0 -5.77862,-2.5869 -5.77862,-5.77797v-86.67283c0,-3.19107 2.58493,-5.77862 5.77862,-5.77862c3.19435,0 5.77862,2.58755 5.77862,5.77862v86.67283c0,3.19107 -2.58493,5.77862 -5.77862,5.77862z" fill="#5a464b"/><path d="M328.44052,80.79824c8.95661,4.52445 21.25615,13.69052 25.82577,31.04538c1.02442,3.88885 6.57787,3.62244 7.21281,-0.34889c2.27466,-14.23448 3.45749,-31.65152 0.18197,-47.30905c-0.64345,-3.07521 1.02049,-6.20148 4.01715,-7.14735c5.74262,-1.81122 10.16038,-2.42718 13.41167,-2.42718c3.18387,0 8.80998,0.60156 10.72135,4.63573c0.27754,0.5865 0.41304,1.23061 0.42548,2.02723c0.09164,5.76619 -4.56242,14.76076 -9.4914,24.28358c-1.96112,3.79001 -3.98966,7.70898 -5.93965,11.82235c-6.72187,14.17884 -13.41233,30.42288 -17.84121,41.55334c-1.26661,3.18453 -4.21091,5.24187 -7.49951,5.24187h-94.37068c9.55816,-10.16954 40.88305,-42.83828 66.95036,-62.78985c1.84984,-1.41651 4.31695,-1.63776 6.3972,-0.58716z" fill="#ffaa41"/><path d="M361.65844,64.18502c-0.64345,-3.07521 1.02114,-6.20148 4.01715,-7.14735c5.74262,-1.81122 10.16038,-2.42587 13.41167,-2.42587c3.18387,0 8.80998,0.60156 10.72135,4.63573c0.27754,0.5865 0.41304,1.23061 0.42548,2.02723c0.09164,5.76619 -4.56242,14.76076 -9.4914,24.28358c-0.32925,0.63625 -0.6644,1.34058 -0.99692,1.98468c-5.60712,2.17386 -11.05257,4.33659 -16.33371,6.49146c0.58388,-9.84618 0.26772,-20.18264 -1.75362,-29.84946z" fill="#ff9641"/><path d="M322.03873,81.38081c1.8505,-1.41651 4.3176,-1.63841 6.3972,-0.58716c6.625,3.34686 15.06187,9.25771 20.8634,19.11764c-42.55354,18.13839 -72.97903,34.66717 -89.36969,44.26002h-4.83799c9.55882,-10.1702 40.8837,-42.83828 66.95036,-62.7905z" fill="#ff9641"/><path d="M228.44373,175.95113v-28.89181c0,-6.3828 5.17379,-11.55659 11.55659,-11.55659c6.3828,0 11.55659,5.17379 11.55659,11.55659v28.89181c0,6.3828 -5.17379,11.55659 -11.55659,11.55659c-6.38215,0 -11.55659,-5.17379 -11.55659,-11.55659z" fill="#463246"/><path d="M363.64706,87.68441c6.44957,-2.61308 13.12497,-5.23925 20.03405,-7.8687c-0.94718,1.87995 -1.93101,3.79329 -2.93841,5.74066c-1.60372,3.09812 -3.24148,6.35727 -4.85501,9.66355c-4.45572,1.76082 -8.7419,3.51116 -12.98358,5.25758c0.41042,-4.15396 0.67291,-8.45127 0.74295,-12.79309z" fill="#a56946"/><path d="M255.09492,144.17459c1.91072,-2.03247 4.72082,-4.99313 8.15475,-8.54226c17.40984,-9.87433 45.4651,-24.63312 82.7388,-40.5898c2.25372,2.89913 4.27898,6.23028 5.92132,10.05368c-35.64773,15.19344 -62.86513,29.30813 -80.29068,39.07903l-16.52289,-0.00065z" fill="#a56946"/><path d="M344.01165,227.96072M349.79027,227.96072c0,3.19145 -2.58718,5.77862 -5.77862,5.77862c-3.19145,0 -5.77862,-2.58718 -5.77862,-5.77862c0,-3.19145 2.58718,-5.77862 5.77862,-5.77862c3.19145,0 5.77862,2.58718 5.77862,5.77862" fill="#8c6950"/><path d="M345.27564,73.3884M351.05426,73.3884c0,3.19145 -2.58718,5.77862 -5.77862,5.77862c-3.19145,0 -5.77862,-2.58718 -5.77862,-5.77862c0,-3.19145 2.58718,-5.77862 5.77862,-5.77862c3.19145,0 5.77862,2.58718 5.77862,5.77862" fill="#8c6950"/><path d="M330.37152,240.05734M334.25383,240.05734c0,2.14414 -1.73817,3.88231 -3.88231,3.88231c-2.14414,0 -3.88231,-1.73817 -3.88231,-3.88231c0,-2.14414 1.73817,-3.88231 3.88231,-3.88231c2.14414,0 3.88231,1.73817 3.88231,3.88231" fill="#8c6950"/><path d="M352.67893,212.15918M356.56124,212.15918c0,2.14414 -1.73817,3.88231 -3.88231,3.88231c-2.14414,0 -3.88231,-1.73817 -3.88231,-3.88231c0,-2.14414 1.73817,-3.88231 3.88231,-3.88231c2.14414,0 3.88231,1.73817 3.88231,3.88231" fill="#8c6950"/><path d="M353.15546,86.89891M357.03777,86.89891c0,2.14414 -1.73817,3.88231 -3.88231,3.88231c-2.14414,0 -3.88231,-1.73817 -3.88231,-3.88231c0,-2.14414 1.73817,-3.88231 3.88231,-3.88231c2.14414,0 3.88231,1.73817 3.88231,3.88231" fill="#8c6950"/></g><path d="M24.42471,329.79918l4.60935,-59.16234c1.38582,-0.24101 3.41032,-0.36152 6.07349,-0.36152c2.65113,0 4.6455,0.12051 5.98311,0.36152l8.2426,27.14997c1.50632,4.68768 2.66318,9.28497 3.47057,13.79189h0.5242c0.39767,-2.83189 1.5244,-7.42918 3.38019,-13.79189l8.2426,-27.14997c1.50632,-0.24101 3.53082,-0.36152 6.07349,-0.36152c2.54267,0 4.56717,0.12051 6.07349,0.36152l4.59127,59.16234c-1.26531,0.34947 -2.75356,0.5242 -4.46474,0.5242c-1.71118,0 -3.1693,-0.11448 -4.37436,-0.34344l-2.00642,-31.75931c-0.34947,-4.62742 -0.57843,-10.49606 -0.68688,-17.6059h-0.5242l-11.89393,40.25498c-1.84374,0.22896 -3.43442,0.34344 -4.77203,0.34344c-1.32556,0 -2.85599,-0.11448 -4.59127,-0.34344l-11.89393,-40.25498h-0.50612c-0.28921,8.72462 -0.5242,14.59326 -0.70496,17.6059l-2.07873,31.75931c-1.15686,0.22896 -2.60293,0.34344 -4.33821,0.34344c-1.73528,0 -3.21148,-0.17473 -4.42859,-0.5242zM123.25275,326.23824c-3.18135,3.18135 -7.37496,4.77203 -12.58081,4.77203c-3.01265,0 -5.67582,-0.53023 -7.98954,-1.59068c-2.31371,-1.0725 -4.26591,-2.60895 -5.85658,-4.60935c-1.59068,-1.98835 -2.80176,-4.35629 -3.63325,-7.10382c-0.84354,-2.74753 -1.26531,-5.83248 -1.26531,-9.25485c0,-3.35006 0.42177,-6.41091 1.26531,-9.18254c0.83149,-2.78368 2.04257,-5.1697 3.63325,-7.15805c1.59068,-2.0004 3.54287,-3.53685 5.85658,-4.60935c2.31371,-1.0725 4.97689,-1.60875 7.98954,-1.60875c3.01265,0 5.67582,0.53625 7.98954,1.60875c2.31371,1.0725 4.26591,2.60895 5.85658,4.60935c1.59068,1.98835 2.80176,4.37436 3.63325,7.15805c0.84354,2.77163 1.26531,5.83248 1.26531,9.18254c0,7.76058 -2.05462,13.68946 -6.16387,17.78666zM110.67194,292.76172c-6.30246,0 -9.45368,5.22995 -9.45368,15.68986c0,10.47196 3.15123,15.70794 9.45368,15.70794c6.36271,0 9.54406,-5.23598 9.54406,-15.70794c0,-10.45991 -3.18135,-15.68986 -9.54406,-15.68986zM174.19057,300.48011v20.20883c0,3.41032 0.48805,6.04337 1.46415,7.89916c-1.50632,1.27736 -3.27173,1.91604 -5.29623,1.91604c-1.96425,0 -3.30789,-0.48202 -4.03092,-1.44607c-0.72304,-0.952 -1.08455,-2.37999 -1.08455,-4.28398v-22.03449c0,-3.01265 -0.39164,-5.15765 -1.17493,-6.43501c-0.77124,-1.26531 -2.11488,-1.89797 -4.03092,-1.89797c-1.90399,0 -3.85619,0.476 -5.85658,1.42799c-1.98835,0.952 -3.73568,2.26551 -5.242,3.94054v30.11441c-0.98815,0.22896 -2.46434,0.34344 -4.42859,0.34344c-0.92789,0 -1.76541,-0.03013 -2.51255,-0.09038c-0.75919,-0.0482 -1.42799,-0.13256 -2.00642,-0.25306v-42.69522l0.5242,-0.50612h3.38019c3.13315,0 4.78408,1.78951 4.95279,5.36854c4.2177,-3.86824 8.815,-5.80236 13.79189,-5.80236c3.88029,0 6.77243,1.28339 8.67642,3.85016c1.91604,2.57882 2.87406,6.03734 2.87406,10.37555zM220.6058,325.8948c-0.69893,2.08475 -1.82566,3.6212 -3.38019,4.60935c-3.42237,-0.63868 -5.73608,-2.43422 -6.94114,-5.38661c-4.10925,3.92849 -8.33298,5.89274 -12.67119,5.89274c-2.20526,0 -4.12732,-0.34344 -5.7662,-1.03032c-1.65093,-0.69893 -3.04277,-1.63888 -4.17553,-2.81984c-1.1207,-1.19301 -1.95822,-2.55472 -2.51255,-4.08515c-0.55433,-1.53042 -0.83149,-3.13315 -0.83149,-4.80818c0,-4.74793 1.51837,-8.33298 4.55512,-10.75515c3.03675,-2.43422 7.07369,-3.65133 12.11084,-3.65133c1.44607,0 2.86201,0.04218 4.24783,0.12653c1.38582,0.08435 2.74753,0.24704 4.08515,0.48805v-3.39826c0,-5.1456 -2.37396,-7.7184 -7.12189,-7.7184c-3.28981,0 -7.82685,1.10263 -13.61113,3.30789c-1.68708,-1.44607 -2.55472,-3.61518 -2.60293,-6.50732c5.89274,-2.66318 11.87585,-3.99477 17.94934,-3.99477c4.51897,0 8.01966,1.19903 10.50208,3.5971c2.48242,2.39807 3.72363,6.02529 3.72363,10.88168v17.78666c0,3.59107 0.81341,6.07952 2.44024,7.46534zM199.07744,323.90645c3.71158,0 7.12792,-1.73528 10.24902,-5.20585v-8.2426c-1.15686,-0.12051 -2.37396,-0.21089 -3.65133,-0.27114c-1.26531,-0.0482 -2.5969,-0.0723 -3.99477,-0.0723c-2.65113,0 -4.7178,0.65073 -6.20003,1.95219c-1.47017,1.30146 -2.20526,3.01867 -2.20526,5.15162c0,2.08475 0.51818,3.71761 1.55453,4.89856c1.0484,1.19301 2.46434,1.78951 4.24783,1.78951zM228.93155,291.18911c0.57843,-2.13295 1.67503,-3.72363 3.28981,-4.77203c4.00079,0.86764 6.63385,3.44044 7.89916,7.7184c2.31371,-5.1456 6.10362,-7.7184 11.36973,-7.7184c1.38582,0 2.91624,0.17473 4.59127,0.5242c0,3.35006 -0.72304,6.18195 -2.16911,8.49566c-0.51818,-0.16871 -1.69913,-0.31332 -3.54287,-0.43382c-3.94054,0 -7.03754,2.19923 -9.291,6.59769v28.28875c-1.0966,0.22896 -2.58485,0.34344 -4.46474,0.34344c-1.87989,0 -3.36814,-0.11448 -4.46474,-0.34344v-29.75289c0,-3.94054 -1.0725,-6.92306 -3.21751,-8.94756zM284.2835,303.60724v-0.95802c0,-6.54347 -2.54267,-9.8152 -7.62802,-9.8152c-2.78368,0 -4.92266,1.33159 -6.41694,3.99477c-1.50632,2.66318 -2.25948,6.62782 -2.25948,11.89393c0,9.94173 3.26571,14.9126 9.79712,14.9126c3.24161,0 6.7423,-1.44607 10.50208,-4.33821c0.80739,0.46997 1.59068,1.22313 2.34986,2.25948c0.74714,1.0484 1.23518,2.06065 1.46415,3.03675c-4.27796,4.27796 -9.45368,6.41694 -15.52718,6.41694c-3.06085,0 -5.70595,-0.56035 -7.93531,-1.68106c-2.22936,-1.13275 -4.07912,-2.71138 -5.54929,-4.73588c-1.48222,-2.0245 -2.58485,-4.45269 -3.30789,-7.28458c-0.72304,-2.83189 -1.08455,-5.95299 -1.08455,-9.3633c0,-3.53082 0.49407,-6.67 1.48222,-9.41753c0.9761,-2.74753 2.28961,-5.04919 3.94054,-6.90498c1.65093,-1.84374 3.56095,-3.25968 5.73005,-4.24783c2.16911,-0.98815 4.47077,-1.48222 6.90498,-1.48222c2.48242,0 4.6937,0.37959 6.63385,1.13878c1.94014,0.74714 3.58505,1.72926 4.93471,2.94637c1.36172,1.21711 2.40409,2.621 3.12713,4.21168c0.72304,1.59068 1.08455,3.1934 1.08455,4.80818c0,3.30186 -1.5003,4.95279 -4.50089,4.95279c-1.50632,0 -2.75356,-0.11448 -3.74171,-0.34344zM336.51916,300.57049v20.11845c0,3.47057 0.46395,6.10362 1.39184,7.89916c-1.62683,1.27736 -3.39224,1.91604 -5.29623,1.91604c-1.90399,0 -3.21751,-0.48202 -3.94054,-1.44607c-0.72304,-0.952 -1.08455,-2.37999 -1.08455,-4.28398v-22.03449c0,-3.01265 -0.39164,-5.15765 -1.17493,-6.43501c-0.78329,-1.26531 -2.12693,-1.89797 -4.03092,-1.89797c-1.91604,0 -3.86824,0.48805 -5.85658,1.46415c-2.0004,0.98815 -3.75376,2.28961 -5.26008,3.90439v30.11441c-0.57843,0.12051 -1.24121,0.20486 -1.98835,0.25306c-0.75919,0.06025 -1.54247,0.09038 -2.34986,0.09038c-0.80739,0 -1.60273,-0.03013 -2.38602,-0.09038c-0.78329,-0.0482 -1.46415,-0.13256 -2.04257,-0.25306v-63.24749l0.5242,-0.5242h3.47057c1.79554,0 3.04277,0.43382 3.74171,1.30146c0.68688,0.86764 1.03032,2.34384 1.03032,4.42859v20.20883c4.22975,-3.82004 8.80295,-5.73005 13.71959,-5.73005c3.86824,0 6.76038,1.28941 8.67642,3.86824c1.90399,2.57882 2.85599,6.03734 2.85599,10.37555zM378.6938,284.6818c-0.98815,2.43422 -1.68708,4.89254 -2.0968,7.37496c-0.39767,2.49447 -0.5965,5.06727 -0.5965,7.7184c0,2.95239 0.19883,5.86261 0.5965,8.73065c0.40972,2.85599 1.16288,5.41674 2.25948,7.68225c1.0966,2.25346 2.60293,4.06105 4.51897,5.42276c1.90399,1.34967 4.33218,2.0245 7.28458,2.0245c3.18135,0 5.71198,-0.79534 7.59187,-2.38602c1.87989,-1.59068 3.32596,-3.56697 4.33821,-5.92889c1.01225,-2.37396 1.67503,-4.92266 1.98835,-7.6461c0.32537,-2.71138 0.48805,-5.19983 0.48805,-7.46534c0,-2.31371 -0.16268,-4.82626 -0.48805,-7.53764c-0.31332,-2.72343 -0.96405,-5.25405 -1.95219,-7.59187c-0.9761,-2.34986 -2.43422,-4.30206 -4.37436,-5.85658c-1.94014,-1.56658 -4.50089,-2.34986 -7.68225,-2.34986c-2.95239,0 -5.42276,0.69291 -7.41111,2.07873c-2.0004,1.39787 -3.48864,3.30789 -4.46474,5.73005zM375.56667,325.80442c-6.194,-5.31431 -9.291,-13.81599 -9.291,-25.50506c0,-4.73588 0.53625,-9.00179 1.60875,-12.79772c1.0725,-3.78388 2.63305,-7.00741 4.68165,-9.67059c2.06065,-2.66318 4.59127,-4.7178 7.59187,-6.16387c3.01265,-1.44607 6.48321,-2.16911 10.4117,-2.16911c3.88029,0 7.33881,0.71098 10.37555,2.13295c3.03675,1.40992 5.56737,3.44647 7.59187,6.10965c2.0245,2.66318 3.573,5.90479 4.6455,9.72482c1.06045,3.82004 1.59068,8.09799 1.59068,12.83387c0,4.74793 -0.53023,9.01384 -1.59068,12.79772c-1.0725,3.79593 -2.621,7.01947 -4.6455,9.67059c-2.0245,2.66318 -4.55512,4.70575 -7.59187,6.12772c-3.03675,1.40992 -6.49526,2.11488 -10.37555,2.11488c-6.13375,0 -11.13474,-1.73528 -15.00298,-5.20585zM421.72161,324.50295c0.22896,-2.83189 1.53042,-5.19983 3.90439,-7.10382c6.01324,3.92849 11.82765,5.89274 17.44322,5.89274c3.41032,0 6.11567,-0.75316 8.11607,-2.25948c1.98835,-1.49427 2.98252,-3.45852 2.98252,-5.89274c0,-3.98874 -2.63305,-7.10984 -7.89916,-9.3633l-10.23095,-4.42859c-7.92928,-3.41032 -11.89393,-8.41733 -11.89393,-15.02105c0,-2.36191 0.49407,-4.5732 1.48222,-6.63385c0.98815,-2.0486 2.34986,-3.85619 4.08515,-5.42276c1.73528,-1.55453 3.83209,-2.74151 6.2904,-3.56095c2.45832,-0.80739 5.15765,-1.21108 8.09799,-1.21108c6.07349,0 12.09276,1.50632 18.0578,4.51897c-0.06025,2.77163 -1.18698,5.1697 -3.38019,7.1942c-5.55532,-2.71138 -10.50208,-4.06707 -14.84029,-4.06707c-3.1211,0 -5.63967,0.76521 -7.55572,2.29564c-1.90399,1.53042 -2.85599,3.33801 -2.85599,5.42276c0,2.13295 0.59048,3.79593 1.77144,4.98894c1.19301,1.18096 3.0006,2.26551 5.42276,3.25366l10.06826,4.33821c4.33821,1.84374 7.59187,4.08515 9.76097,6.72423c2.16911,2.62703 3.25366,5.7662 3.25366,9.41753c0,5.20585 -1.80759,9.41151 -5.42276,12.61696c-3.61518,3.20546 -9.09819,4.80818 -16.44905,4.80818c-7.33881,0 -14.07508,-2.16911 -20.20883,-6.50732z" data-paper-data="{&quot;index&quot;:null}" fill="#000000"/></g></g></svg>