<svg version="1.1" xmlns="http://www.w3.org/2000/svg" xmlns:xlink="http://www.w3.org/1999/xlink" width="75.93426"
    height="47.52324" viewBox="0,0,75.93426,47.52324">
    <defs>
        <linearGradient x1="243.095" y1="170.23617" x2="237.225" y2="170.23617" gradientUnits="userSpaceOnUse"
            id="color-1">
            <stop offset="0" stop-color="#000000" />
            <stop offset="1" stop-color="#000000" stop-opacity="0" />
        </linearGradient>
        <linearGradient x1="257.56116" y1="180.44622" x2="202.05253" y2="180.44622" gradientUnits="userSpaceOnUse"
            id="color-2">
            <stop offset="0" stop-color="#000000" />
            <stop offset="1" stop-color="#000000" stop-opacity="0" />
        </linearGradient>
        <linearGradient x1="257.5679" y1="174.96097" x2="247.79847" y2="174.96097" gradientUnits="userSpaceOnUse"
            id="color-3">
            <stop offset="0" stop-color="#000000" />
            <stop offset="1" stop-color="#000000" stop-opacity="0" />
        </linearGradient>
        <linearGradient x1="256.55145" y1="158.3792" x2="250.75241" y2="158.3792" gradientUnits="userSpaceOnUse"
            id="color-4">
            <stop offset="0" stop-color="#000000" />
            <stop offset="1" stop-color="#000000" stop-opacity="0" />
        </linearGradient>
        <linearGradient x1="244.94389" y1="173.96107" x2="237.22689" y2="173.96107" gradientUnits="userSpaceOnUse"
            id="color-5">
            <stop offset="0" stop-color="#000000" />
            <stop offset="1" stop-color="#000000" stop-opacity="0" />
        </linearGradient>
        <linearGradient x1="242.30322" y1="173.7185" x2="238.04962" y2="173.7185" gradientUnits="userSpaceOnUse"
            id="color-6">
            <stop offset="0" stop-color="#000000" />
            <stop offset="1" stop-color="#000000" stop-opacity="0" />
        </linearGradient>
        <linearGradient x1="249.605" y1="165.31" x2="247.745" y2="165.31" gradientUnits="userSpaceOnUse" id="color-7">
            <stop offset="0" stop-color="#000000" />
            <stop offset="1" stop-color="#000000" stop-opacity="0" />
        </linearGradient>
        <linearGradient x1="253.37102" y1="192.775" x2="243.37857" y2="192.775" gradientUnits="userSpaceOnUse"
            id="color-8">
            <stop offset="0" stop-color="#000000" />
            <stop offset="1" stop-color="#000000" stop-opacity="0" />
        </linearGradient>
        <linearGradient x1="229.805" y1="185.53079" x2="206.86538" y2="185.53079" gradientUnits="userSpaceOnUse"
            id="color-9">
            <stop offset="0" stop-color="#000000" />
            <stop offset="1" stop-color="#000000" stop-opacity="0" />
        </linearGradient>
        <linearGradient x1="245.615" y1="188.64" x2="234.08453" y2="188.64" gradientUnits="userSpaceOnUse"
            id="color-10">
            <stop offset="0" stop-color="#000000" />
            <stop offset="1" stop-color="#000000" stop-opacity="0" />
        </linearGradient>
        <linearGradient x1="219.295" y1="177.01481" x2="211.71771" y2="177.01481" gradientUnits="userSpaceOnUse"
            id="color-11">
            <stop offset="0" stop-color="#000000" />
            <stop offset="1" stop-color="#000000" stop-opacity="0" />
        </linearGradient>
        <linearGradient x1="275.095" y1="194.93768" x2="257.55685" y2="194.93768" gradientUnits="userSpaceOnUse"
            id="color-12">
            <stop offset="0" stop-color="#000000" />
            <stop offset="1" stop-color="#000000" stop-opacity="0" />
        </linearGradient>
        <linearGradient x1="275.095" y1="194.91268" x2="258.725" y2="194.91268" gradientUnits="userSpaceOnUse"
            id="color-13">
            <stop offset="0" stop-color="#000000" />
            <stop offset="1" stop-color="#000000" stop-opacity="0" />
        </linearGradient>
        <linearGradient x1="275.38279" y1="188.5648" x2="271.095" y2="188.5648" gradientUnits="userSpaceOnUse"
            id="color-14">
            <stop offset="0" stop-color="#000000" />
            <stop offset="1" stop-color="#000000" stop-opacity="0" />
        </linearGradient>
        <linearGradient x1="277.94727" y1="190.87853" x2="262.25431" y2="190.87853" gradientUnits="userSpaceOnUse"
            id="color-15">
            <stop offset="0" stop-color="#000000" />
            <stop offset="1" stop-color="#000000" stop-opacity="0" />
        </linearGradient>
        <linearGradient x1="277.98679" y1="192.41618" x2="262.405" y2="192.41618" gradientUnits="userSpaceOnUse"
            id="color-16">
            <stop offset="0" stop-color="#000000" />
            <stop offset="1" stop-color="#000000" stop-opacity="0" />
        </linearGradient>
    </defs>
    <g transform="translate(-202.05253,-156.23676)">
        <g data-paper-data="{&quot;isPaintingLayer&quot;:true}" fill-rule="nonzero" stroke="none" stroke-width="1"
            stroke-linecap="butt" stroke-linejoin="miter" stroke-miterlimit="10" stroke-dasharray=""
            stroke-dashoffset="0" style="mix-blend-mode: normal">
            <path d="M243.095,169.72c-2.12,2.89 -5.87,3.83 -5.87,1.19c0,-2.64 2.55,-3.66 5.87,-2.3"
                data-paper-data="{&quot;index&quot;:null}" fill="url(#color-1)" />
            <path
                d="M245.585,175.64c-3.29,-1 -5.15,-5.37 -2.41,-10.41c2.74,-5.04 7.12,-3.18 8.11,-5.26c0.99,-2.08 1.75,-3.83 4.16,-2.19c2.41,1.64 2.74,7.23 1.1,12.38c-1.64,5.15 -5.15,4.6 -4.49,6.24c0.66,1.64 2.3,4 1.31,7.78c-0.87,3.32 -2.41,4.82 -0.11,5.7c2.3,0.88 2.08,4 1.21,4.56c-0.87,0.56 -0.44,-1.38 -2.09,-1.94c-1.65,-0.56 -4.05,-2.3 -4.16,-4.16c-0.78996,2.08631 -0.01481,4.44094 1.86,5.65c3.29,2.45 3.73,5.11 3,7.29c0.87833,-0.11979 1.76384,0.16313 2.41,0.77c0.77,1 1,1.71 0,1.71h-23.37c-3.83,0 -9.09,-5 -10.41,-13.56c-1.32,-8.56 0.88,-10.19 -2.41,-13.91c0,0 1.53,5.48 -3.29,7.12c-4.82,1.64 -15.34,-0.1 -13.8,-12.7c1.54,-12.6 19.94,-16.84 26.29,-6.56c6.35,10.28 -0.33,23.89 2.41,30.5c2.74,6.61 5.59,6.07 5.59,6.07c0,0 -4.27,-4.71 -1.42,-14c2.85,-9.29 10.51,-11.08 10.51,-11.08z"
                data-paper-data="{&quot;index&quot;:null}" fill="url(#color-2)" />
            <path
                d="M256.565,170.17c-1.64,5.14 -5.14,4.6 -4.49,6.24c0.65,1.64 2.31,4.05 1.31,7.78c-0.87,3.32 -2.41,4.82 -0.11,5.7c1.1671,0.47479 1.89998,1.64256 1.82,2.9c-0.02042,-0.29509 -0.0741,-0.58695 -0.16,-0.87c-0.58,-1.66 -3.1,-1.68 -4.1,-3.1c-0.47609,-0.77463 -0.61687,-1.70952 -0.39,-2.59c0.17,-0.88 0.51,-1.71 0.69,-2.59c0.49811,-2.6651 -0.56505,-5.38121 -2.74,-7c-0.23808,-0.13157 -0.43267,-0.32964 -0.56,-0.57c-0.04871,-0.18688 -0.04871,-0.38312 0,-0.57c0.16484,-1.14806 0.69829,-2.21146 1.52,-3.03c0.95,-0.91 2.21,-1.44 3.15,-2.36c1.22607,-1.40759 2.00579,-3.14804 2.24,-5c0.17837,-0.70613 0.20901,-1.44148 0.09,-2.16c-0.1674,-0.69769 -0.42631,-1.37018 -0.77,-2c-0.35357,-1.03583 -1.11615,-1.88153 -2.11,-2.34v0c0.76,-1.35 1.64,-2.09 3.49,-0.83c2.39,1.64 2.76,7.25 1.12,12.39z"
                data-paper-data="{&quot;index&quot;:null}" fill="url(#color-3)" />
            <path
                d="M251.285,159.96999c-1.06,-1.59 -0.55,-3.83 1.64,-3.73c2.19,0.1 4.15,1.47 3.5,2.6c-0.65,1.13 -4.26,2.45 -5.14,1.13z"
                data-paper-data="{&quot;index&quot;:null}" fill="url(#color-4)" />
            <path
                d="M244.135,172.5c-1.82,3.51 -6.1,7.2 -6.82,3.72c-0.72,-3.48 3.1,-6.48 6.82,-5.48c0,0 1.82,-1.75 0,1.76z"
                data-paper-data="{&quot;index&quot;:null}" fill="url(#color-5)" />
            <path d="M238.355,175.56c-1.33,-1.76 2,-4.54 3.92,-4.3c0.32,1.86 -2.15,6.64 -3.92,4.3z"
                data-paper-data="{&quot;index&quot;:null}" fill="url(#color-6)" />
            <path
                d="M247.745,165.31c0,-0.3148 0.41638,-0.57 0.93,-0.57c0.51363,0 0.93,0.2552 0.93,0.57c0,0.3148 -0.41638,0.57 -0.93,0.57c-0.51362,0 -0.93,-0.2552 -0.93,-0.57z"
                data-paper-data="{&quot;index&quot;:null}" fill="url(#color-7)" />
            <path
                d="M246.575,183.05c0,0 -0.09,3.6 1.61,5.31c-0.78996,2.08631 -0.01481,4.44094 1.86,5.65c3.33,2.46 3.77,5.11 3,7.29c-1.65731,0.26309 -3.28968,0.66449 -4.88,1.2c0,0 2.89,-4 -2.59,-7.59c-5.47,-3.61 1,-11.86 1,-11.86z"
                data-paper-data="{&quot;index&quot;:null}" fill="url(#color-8)" />
            <path
                d="M229.805,203.25c-3.39,-1.48 -7.04,-6.08 -8.1,-13c-1.31,-8.54 0.88,-10.19 -2.41,-13.91c0,0 1.53,5.48 -3.29,7.12c-0.80673,0.26325 -1.64323,0.42451 -2.49,0.48c-6.8,0.03 -10.35,-12.71 -0.87,-15.6c9.48,-2.89 15.66,6.53 12.66,17.16c-1.71191,6.29645 -0.0049,13.02964 4.5,17.75z"
                data-paper-data="{&quot;index&quot;:null}" fill="url(#color-9)" />
            <path
                d="M245.615,175.64c0,0 -14.89,8.52 -6.13,26c-0.98407,-0.34514 -1.98542,-0.63887 -3,-0.88c0,0 -4.27,-4.74 -1.42,-14c2.85,-9.26 10.55,-11.12 10.55,-11.12z"
                data-paper-data="{&quot;index&quot;:null}" fill="url(#color-10)" />
            <path
                d="M214.025,177.5c-1.73,1.18 1.48,2 1.48,2c0,0 -3.29,0.89 -3.75,-1.78c-0.46,-2.67 3.41,-5.19 7.54,-1.42c0,0 -3.54,0.02 -5.27,1.2z"
                data-paper-data="{&quot;index&quot;:null}" fill="url(#color-11)" />
            <path
                d="M275.095,196.5c0,0 -2.61,4.16 -5.77,5.8c-3.16,1.64 -7.46,1.39 -8.46,0.46c-0.56736,-0.5467 -1.34589,-0.81718 -2.13,-0.74c0.1,-1.52 -1.4,-2.32 -1.15,-6.92c0.25,-4.6 4.67,-7.54 5.85,-8.72z"
                data-paper-data="{&quot;index&quot;:null}" fill="url(#color-12)" />
            <path
                d="M275.095,196.5c0,0 -2.62,4.11 -5.78,5.75c-3.16,1.64 -7.46,1.39 -8.46,0.46c-0.56736,-0.5467 -1.34589,-0.81718 -2.13,-0.74v0c0.2947,-0.16384 0.60659,-0.29463 0.93,-0.39c0.9,-0.27 1.84,-0.35 2.72,-0.67c1.6014,-0.75535 2.97958,-1.91301 4,-3.36c0.65892,-0.61965 1.06802,-1.45921 1.15,-2.36c-0.09351,-0.68163 -0.37777,-1.32294 -0.82,-1.85c-0.86,-1.22 -3.51,-3.95 -4.11,-6.22c0.35,-0.29 0.64,-0.54 0.84,-0.74z"
                data-paper-data="{&quot;index&quot;:null}" fill="url(#color-13)" />
            <path
                d="M271.095,188.74c0.90474,-1.11075 2.23053,-1.79538 3.66,-1.89c0.51,0.09 0.93,1.1 0.34,1.26c-0.59,0.16 -2.65,1 -3,1.94c-0.35,0.94 -1,-1.31 -1,-1.31z"
                data-paper-data="{&quot;index&quot;:null}" fill="url(#color-14)" />
            <path
                d="M266.00501,183.23c1.39,0.54 10.31,10.27 11.24,11.27c0.4743,0.43555 0.73066,1.05926 0.69975,1.70246c-0.03091,0.64321 -0.34589,1.23947 -0.85976,1.62754c-1.22,1.04 -1.9,1.14 -3.12,0.27c-1.22,-0.87 -9.61,-9.68 -10.74,-10.75c-1.13,-1.07 -1.26,-2.19 -0.46,-3.07c0.7185,-1.04212 2.04681,-1.4726 3.24,-1.05z"
                data-paper-data="{&quot;index&quot;:null}" fill="url(#color-15)" />
            <path
                d="M277.98493,196.22355c-0.02721,0.65694 -0.35082,1.26613 -0.87993,1.65645c-1.22,1.04 -1.9,1.14 -3.12,0.27c-1.22,-0.87 -9.6,-9.7 -10.74,-10.75c-0.36553,-0.32086 -0.65286,-0.72106 -0.84,-1.17c0.92,-0.61 1.98,1 2.34,1.62c1.06146,1.68686 2.41613,3.17022 4,4.38c0.78266,0.76438 1.78084,1.27045 2.86,1.45c1.12385,0.13514 2.14453,-0.66619 2.28,-1.79c-0.02384,-0.33291 -0.02384,-0.66709 0,-1c1.67,1.77 3.03,3.25 3.36,3.61c0.49502,0.43275 0.76714,1.0666 0.73993,1.72355z"
                data-paper-data="{&quot;index&quot;:null}" fill="url(#color-16)" />
        </g>
    </g>
</svg>
