<svg version="1.1" xmlns="http://www.w3.org/2000/svg" xmlns:xlink="http://www.w3.org/1999/xlink" width="75.93426" height="47.52323" viewBox="0,0,75.93426,47.52323"><defs><linearGradient x1="242.81432" y1="170.23617" x2="236.94432" y2="170.23617" gradientUnits="userSpaceOnUse" id="color-1"><stop offset="0" stop-color="#792c29" stop-opacity="0"/><stop offset="1" stop-color="#792c29"/></linearGradient><linearGradient x1="277.98679" y1="180.44623" x2="222.47816" y2="180.44623" gradientUnits="userSpaceOnUse" id="color-2"><stop offset="0" stop-color="#792c29" stop-opacity="0"/><stop offset="1" stop-color="#ac5642"/></linearGradient><linearGradient x1="232.24085" y1="174.96097" x2="222.47142" y2="174.96097" gradientUnits="userSpaceOnUse" id="color-3"><stop offset="0" stop-color="#792c29" stop-opacity="0"/><stop offset="1" stop-color="#ac5642"/></linearGradient><linearGradient x1="229.28692" y1="158.37921" x2="223.48788" y2="158.37921" gradientUnits="userSpaceOnUse" id="color-4"><stop offset="0" stop-color="#792c29" stop-opacity="0"/><stop offset="1" stop-color="#281547"/></linearGradient><linearGradient x1="242.81243" y1="173.96108" x2="235.09543" y2="173.96108" gradientUnits="userSpaceOnUse" id="color-5"><stop offset="0" stop-color="#792c29" stop-opacity="0"/><stop offset="1" stop-color="#ac5642"/></linearGradient><linearGradient x1="241.9897" y1="173.7185" x2="237.7361" y2="173.7185" gradientUnits="userSpaceOnUse" id="color-6"><stop offset="0" stop-color="#792c29" stop-opacity="0"/><stop offset="1" stop-color="#e4b17f"/></linearGradient><linearGradient x1="232.29432" y1="165.31" x2="230.43432" y2="165.31" gradientUnits="userSpaceOnUse" id="color-7"><stop offset="0" stop-color="#792c29" stop-opacity="0"/><stop offset="1" stop-color="#281547"/></linearGradient><linearGradient x1="236.66075" y1="192.775" x2="226.6683" y2="192.775" gradientUnits="userSpaceOnUse" id="color-8"><stop offset="0" stop-color="#792c29" stop-opacity="0"/><stop offset="1" stop-color="#ac5642"/></linearGradient><linearGradient x1="43.08958" y1="1443.59442" x2="-483.14524" y2="1443.59442" gradientUnits="userSpaceOnUse" id="color-9"><stop offset="0" stop-color="#792c29" stop-opacity="0"/><stop offset="1" stop-color="#ac5642"/></linearGradient><linearGradient x1="245.95479" y1="188.64" x2="234.42432" y2="188.64" gradientUnits="userSpaceOnUse" id="color-10"><stop offset="0" stop-color="#792c29" stop-opacity="0"/><stop offset="1" stop-color="#ac5642"/></linearGradient><linearGradient x1="268.32161" y1="177.01482" x2="260.74432" y2="177.01482" gradientUnits="userSpaceOnUse" id="color-11"><stop offset="0" stop-color="#792c29" stop-opacity="0"/><stop offset="1" stop-color="#521c1f"/></linearGradient><linearGradient x1="222.48247" y1="194.93768" x2="204.94432" y2="194.93768" gradientUnits="userSpaceOnUse" id="color-12"><stop offset="0" stop-color="#792c29" stop-opacity="0"/><stop offset="1" stop-color="#926948"/></linearGradient><linearGradient x1="221.31432" y1="194.91268" x2="204.94432" y2="194.91268" gradientUnits="userSpaceOnUse" id="color-13"><stop offset="0" stop-color="#792c29" stop-opacity="0"/><stop offset="1" stop-color="#926948"/></linearGradient><linearGradient x1="208.94432" y1="188.5648" x2="204.65653" y2="188.5648" gradientUnits="userSpaceOnUse" id="color-14"><stop offset="0" stop-color="#792c29" stop-opacity="0"/><stop offset="1" stop-color="#340c10"/></linearGradient><linearGradient x1="217.78501" y1="190.87854" x2="202.09206" y2="190.87854" gradientUnits="userSpaceOnUse" id="color-15"><stop offset="0" stop-color="#792c29" stop-opacity="0"/><stop offset="1" stop-color="#40151c"/></linearGradient><linearGradient x1="217.63432" y1="192.41618" x2="202.05253" y2="192.41618" gradientUnits="userSpaceOnUse" id="color-16"><stop offset="0" stop-color="#792c29" stop-opacity="0"/><stop offset="1" stop-color="#44171d"/></linearGradient></defs><g transform="translate(-202.05253,-156.23677)"><g data-paper-data="{&quot;isPaintingLayer&quot;:true}" fill-rule="nonzero" stroke="none" stroke-width="1" stroke-linecap="butt" stroke-linejoin="miter" stroke-miterlimit="10" stroke-dasharray="" stroke-dashoffset="0" style="mix-blend-mode: normal"><path d="M236.94432,168.61c3.32,-1.36 5.87,-0.34 5.87,2.3c0,2.64 -3.75,1.7 -5.87,-1.19" data-paper-data="{&quot;index&quot;:null}" fill="url(#color-1)"/><path d="M244.96432,186.72c2.85,9.29 -1.42,14 -1.42,14c0,0 2.85,0.54 5.59,-6.07c2.74,-6.61 -3.94,-20.22 2.41,-30.5c6.35,-10.28 24.75,-6.04 26.29,6.56c1.54,12.6 -8.98,14.34 -13.8,12.7c-4.82,-1.64 -3.29,-7.12 -3.29,-7.12c-3.29,3.72 -1.09,5.35 -2.41,13.91c-1.32,8.56 -6.58,13.56 -10.41,13.56h-23.37c-1,0 -0.77,-0.71 0,-1.71c0.64616,-0.60687 1.53167,-0.88979 2.41,-0.77c-0.73,-2.18 -0.29,-4.84 3,-7.29c1.87481,-1.20906 2.64996,-3.56369 1.86,-5.65c-0.11,1.86 -2.51,3.6 -4.16,4.16c-1.65,0.56 -1.22,2.5 -2.09,1.94c-0.87,-0.56 -1.09,-3.68 1.21,-4.56c2.3,-0.88 0.76,-2.38 -0.11,-5.7c-0.99,-3.78 0.65,-6.14 1.31,-7.78c0.66,-1.64 -2.85,-1.09 -4.49,-6.24c-1.64,-5.15 -1.31,-10.74 1.1,-12.38c2.41,-1.64 3.17,0.11 4.16,2.19c0.99,2.08 5.37,0.22 8.11,5.26c2.74,5.04 0.88,9.41 -2.41,10.41c0,0 7.66,1.79 10.51,11.08z" data-paper-data="{&quot;index&quot;:null}" fill="url(#color-2)"/><path d="M224.59432,157.78c1.85,-1.26 2.73,-0.52 3.49,0.83v0c-0.99385,0.45847 -1.75643,1.30417 -2.11,2.34c-0.34369,0.62982 -0.6026,1.30231 -0.77,2c-0.11901,0.71852 -0.08837,1.45387 0.09,2.16c0.23421,1.85196 1.01393,3.59241 2.24,5c0.94,0.92 2.2,1.45 3.15,2.36c0.82171,0.81854 1.35516,1.88194 1.52,3.03c0.04871,0.18688 0.04871,0.38312 0,0.57c-0.12733,0.24036 -0.32192,0.43843 -0.56,0.57c-2.17495,1.61879 -3.23811,4.3349 -2.74,7c0.18,0.88 0.52,1.71 0.69,2.59c0.22687,0.88048 0.08609,1.81537 -0.39,2.59c-1,1.42 -3.52,1.44 -4.1,3.1c-0.0859,0.28305 -0.13958,0.57491 -0.16,0.87c-0.07998,-1.25744 0.6529,-2.42521 1.82,-2.9c2.3,-0.88 0.76,-2.38 -0.11,-5.7c-1,-3.73 0.66,-6.14 1.31,-7.78c0.65,-1.64 -2.85,-1.1 -4.49,-6.24c-1.64,-5.14 -1.27,-10.75 1.12,-12.39z" data-paper-data="{&quot;index&quot;:null}" fill="url(#color-3)"/><path d="M223.61432,158.84c-0.65,-1.13 1.31,-2.5 3.5,-2.6c2.19,-0.1 2.7,2.14 1.64,3.73c-0.88,1.32 -4.49,0 -5.14,-1.13z" data-paper-data="{&quot;index&quot;:null}" fill="url(#color-4)"/><path d="M235.90432,170.74c3.72,-1 7.54,2 6.82,5.48c-0.72,3.48 -5,-0.21 -6.82,-3.72c-1.82,-3.51 0,-1.76 0,-1.76z" data-paper-data="{&quot;index&quot;:null}" fill="url(#color-5)"/><path d="M237.76432,171.26c1.92,-0.24 5.25,2.54 3.92,4.3c-1.77,2.34 -4.24,-2.44 -3.92,-4.3z" data-paper-data="{&quot;index&quot;:null}" fill="url(#color-6)"/><path d="M231.36432,165.88c-0.51362,0 -0.93,-0.2552 -0.93,-0.57c0,-0.3148 0.41637,-0.57 0.93,-0.57c0.51362,0 0.93,0.2552 0.93,0.57c0,0.3148 -0.41638,0.57 -0.93,0.57z" data-paper-data="{&quot;index&quot;:null}" fill="url(#color-7)"/><path d="M234.46432,194.91c-5.48,3.59 -2.59,7.59 -2.59,7.59c-1.59032,-0.53551 -3.22269,-0.93691 -4.88,-1.2c-0.77,-2.18 -0.33,-4.83 3,-7.29c1.87481,-1.20906 2.64996,-3.56369 1.86,-5.65c1.7,-1.71 1.61,-5.31 1.61,-5.31c0,0 6.47,8.25 1,11.86z" data-paper-data="{&quot;index&quot;:null}" fill="url(#color-8)"/><path d="M254.73432,185.5c-3,-10.63 3.18,-20.05 12.66,-17.16c9.48,2.89 5.93,15.63 -0.87,15.6c-0.84677,-0.05549 -1.68327,-0.21675 -2.49,-0.48c-4.82,-1.64 -3.29,-7.12 -3.29,-7.12c-3.29,3.72 -1.1,5.37 -2.41,13.91c-1.06,6.92 -4.71,11.52 -8.1,13c4.5049,-4.72036 6.21191,-11.45355 4.5,-17.75z" data-paper-data="{&quot;index&quot;:null}" fill="url(#color-9)"/><path d="M244.97432,186.76c2.85,9.26 -1.42,14 -1.42,14c-1.01458,0.24113 -2.01593,0.53486 -3,0.88c8.76,-17.48 -6.13,-26 -6.13,-26c0,0 7.7,1.86 10.55,11.12z" data-paper-data="{&quot;index&quot;:null}" fill="url(#color-10)"/><path d="M260.74432,176.3c4.13,-3.77 8,-1.25 7.54,1.42c-0.46,2.67 -3.75,1.78 -3.75,1.78c0,0 3.21,-0.82 1.48,-2c-1.73,-1.18 -5.27,-1.2 -5.27,-1.2z" data-paper-data="{&quot;index&quot;:null}" fill="url(#color-11)"/><path d="M216.60432,186.38c1.18,1.18 5.6,4.12 5.85,8.72c0.25,4.6 -1.25,5.4 -1.15,6.92c-0.78411,-0.07718 -1.56264,0.1933 -2.13,0.74c-1,0.93 -5.3,1.18 -8.46,-0.46c-3.16,-1.64 -5.77,-5.8 -5.77,-5.8z" data-paper-data="{&quot;index&quot;:null}" fill="url(#color-12)"/><path d="M216.60432,186.38c0.2,0.2 0.49,0.45 0.84,0.74c-0.6,2.27 -3.25,5 -4.11,6.22c-0.44223,0.52706 -0.72649,1.16837 -0.82,1.85c0.08198,0.90079 0.49108,1.74035 1.15,2.36c1.02042,1.44699 2.3986,2.60465 4,3.36c0.88,0.32 1.82,0.4 2.72,0.67c0.32341,0.09537 0.6353,0.22616 0.93,0.39v0c-0.78411,-0.07718 -1.56264,0.1933 -2.13,0.74c-1,0.93 -5.3,1.18 -8.46,-0.46c-3.16,-1.64 -5.78,-5.75 -5.78,-5.75z" data-paper-data="{&quot;index&quot;:null}" fill="url(#color-13)"/><path d="M207.94432,190.05c-0.35,-0.94 -2.41,-1.78 -3,-1.94c-0.59,-0.16 -0.17,-1.17 0.34,-1.26c1.42947,0.09462 2.75526,0.77925 3.66,1.89c0,0 -0.65,2.25 -1,1.31z" data-paper-data="{&quot;index&quot;:null}" fill="url(#color-14)"/><path d="M214.03432,183.23c1.19319,-0.4226 2.5215,0.00788 3.24,1.05c0.8,0.88 0.67,2 -0.46,3.07c-1.13,1.07 -9.52,9.88 -10.74,10.75c-1.22,0.87 -1.9,0.77 -3.12,-0.27c-0.51387,-0.38807 -0.82885,-0.98433 -0.85976,-1.62754c-0.03091,-0.6432 0.22545,-1.26691 0.69975,-1.70246c0.93,-1 9.85,-10.73 11.24,-11.27z" data-paper-data="{&quot;index&quot;:null}" fill="url(#color-15)"/><path d="M202.79432,194.5c0.33,-0.36 1.69,-1.84 3.36,-3.61c0.02384,0.33291 0.02384,0.66709 0,1c0.13547,1.12381 1.15615,1.92514 2.28,1.79c1.07916,-0.17955 2.07734,-0.68562 2.86,-1.45c1.58387,-1.20978 2.93854,-2.69314 4,-4.38c0.36,-0.62 1.42,-2.23 2.34,-1.62c-0.18714,0.44894 -0.47447,0.84914 -0.84,1.17c-1.14,1.05 -9.52,9.88 -10.74,10.75c-1.22,0.87 -1.9,0.77 -3.12,-0.27c-0.52911,-0.39032 -0.85272,-0.99951 -0.87993,-1.65645c-0.02721,-0.65695 0.24491,-1.2908 0.73993,-1.72355z" data-paper-data="{&quot;index&quot;:null}" fill="url(#color-16)"/></g></g></svg>